<?xml version="1.0" encoding="UTF-8" standalone="no"?>
<!-- Generator: Adobe Illustrator 16.0.0, SVG Export Plug-In . SVG Version: 6.00 Build 0)  -->

<svg
   xmlns:dc="http://purl.org/dc/elements/1.1/"
   xmlns:cc="http://creativecommons.org/ns#"
   xmlns:rdf="http://www.w3.org/1999/02/22-rdf-syntax-ns#"
   xmlns:svg="http://www.w3.org/2000/svg"
   xmlns="http://www.w3.org/2000/svg"
   xmlns:sodipodi="http://sodipodi.sourceforge.net/DTD/sodipodi-0.dtd"
   xmlns:inkscape="http://www.inkscape.org/namespaces/inkscape"
   version="1.1"
   id="Layer_1"
   x="0px"
   y="0px"
   width="512px"
   height="512px"
   viewBox="0 0 512 512"
   enable-background="new 0 0 512 512"
   xml:space="preserve"
   inkscape:version="0.91 r13725"
   sodipodi:docname="download-blue.svg"><metadata
   id="metadata13"><rdf:RDF><cc:Work
       rdf:about=""><dc:format>image/svg+xml</dc:format><dc:type
         rdf:resource="http://purl.org/dc/dcmitype/StillImage" /><dc:title></dc:title></cc:Work></rdf:RDF></metadata><defs
   id="defs11" /><sodipodi:namedview
   pagecolor="#ffffff"
   bordercolor="#666666"
   borderopacity="1"
   objecttolerance="10"
   gridtolerance="10"
   guidetolerance="10"
   inkscape:pageopacity="0"
   inkscape:pageshadow="2"
   inkscape:window-width="701"
   inkscape:window-height="480"
   id="namedview9"
   showgrid="false"
   inkscape:zoom="0.4609375"
   inkscape:cx="256"
   inkscape:cy="253.83051"
   inkscape:window-x="0"
   inkscape:window-y="0"
   inkscape:window-maximized="0"
   inkscape:current-layer="Layer_1" />
<g
   id="g3"
   style="fill:#00558f;fill-opacity:0.94117647">
	<path
   d="M442.55,203.072c4.172-11.615,6.45-24.132,6.45-37.184c0-60.751-49.248-110-110-110c-34.805,0-65.829,16.169-85.985,41.4   c-12.395-6.021-26.31-9.4-41.015-9.4c-51.915,0-94,42.085-94,94c0,0.28,0.008,0.559,0.011,0.839   C68.92,189.095,31,231.062,31,281.888c0,55.229,44.771,100,100,100h63.646l-60.209-73.732h89.538v-93.102h88.667v93.102   l88.729,0.002l-60.207,73.73H381c55.229,0,100-44.771,100-100C481,249.873,465.954,221.375,442.55,203.072z"
   id="path5"
   style="fill:#00558f;fill-opacity:0.94117647" />
	<polygon
   points="302.885,317.047 302.885,224.085 232.923,224.085 232.923,317.047 154.35,317.047 211.128,386.578    267.904,456.111 324.68,386.578 381.456,317.049  "
   id="polygon7"
   style="fill:#00558f;fill-opacity:0.94117647" />
</g>
</svg>