<?xml version="1.0" encoding="UTF-8" standalone="no"?>
<!-- Generated by IcoMoon.io -->

<svg
   xmlns:dc="http://purl.org/dc/elements/1.1/"
   xmlns:cc="http://creativecommons.org/ns#"
   xmlns:rdf="http://www.w3.org/1999/02/22-rdf-syntax-ns#"
   xmlns:svg="http://www.w3.org/2000/svg"
   xmlns="http://www.w3.org/2000/svg"
   xmlns:sodipodi="http://sodipodi.sourceforge.net/DTD/sodipodi-0.dtd"
   xmlns:inkscape="http://www.inkscape.org/namespaces/inkscape"
   version="1.1"
   width="512"
   height="512"
   viewBox="0 0 512 512"
   id="svg2"
   inkscape:version="0.91 r13725"
   sodipodi:docname="twitter-blue.svg">
  <metadata
     id="metadata12">
    <rdf:RDF>
      <cc:Work
         rdf:about="">
        <dc:format>image/svg+xml</dc:format>
        <dc:type
           rdf:resource="http://purl.org/dc/dcmitype/StillImage" />
        <dc:title></dc:title>
      </cc:Work>
    </rdf:RDF>
  </metadata>
  <defs
     id="defs10" />
  <sodipodi:namedview
     pagecolor="#ffffff"
     bordercolor="#666666"
     borderopacity="1"
     objecttolerance="10"
     gridtolerance="10"
     guidetolerance="10"
     inkscape:pageopacity="0"
     inkscape:pageshadow="2"
     inkscape:window-width="1920"
     inkscape:window-height="1018"
     id="namedview8"
     showgrid="false"
     inkscape:zoom="0.4609375"
     inkscape:cx="256"
     inkscape:cy="253.83051"
     inkscape:window-x="-8"
     inkscape:window-y="-8"
     inkscape:window-maximized="1"
     inkscape:current-layer="svg2" />
  <g
     id="g4" />
  <path
     d="M23.265 327.916c0 0 61.061 92.58 185.385 90.44 80.158-2.396 193.843-37.765 224.235-154.665 0 0 32.645 5.509 55.839-19.917-31.642 4.393-52.664-5.54-52.664-5.54s41.359-1.178 50.545-25.661c-24.505 10.639-54.805 1.587-54.805 1.587s-14.285-87.522-101.263-90.727c0 0 46.5-9.431 39.219-20.163-5.858-7.772-38.164 6.718-38.164 6.718s18.022-7.936 17.644-16.394c-18.238 2.069-35 15.565-35 15.565s5.099-8.151 5.223-11.602c-43.459 24.105-73.022 114.135-73.022 114.135s-10.998-12.216-29.317-25.508c-44.278-26.020-125.942-56.924-125.942-56.924s-5.458 33.69 38.123 58.368c-17.858 1.423-26.798 3.727-26.798 3.727s0 35.779 51.897 47.452c-24.115 0.839-31.98 12.8-31.98 12.8s13.558 31.959 56.279 29.369c-34.765 17.889-12.257 42.404 16.159 39.793-91.351 81.776-171.591 7.147-171.591 7.147z"
     fill="#000000"
     id="path6"
     style="fill:#00558f;fill-opacity:0.94117647" />
</svg>
