<svg xmlns="http://www.w3.org/2000/svg"><symbol viewBox="0 0 512 512" id="shape-back-arrow-blue"><title>back-arrow-blue</title><metadata id="back-arrow-blue-metadata4153"><rdf:RDF><cc:Work rdf:about=""><dc:format>image/svg+xml</dc:format><dc:type rdf:resource="http://purl.org/dc/dcmitype/StillImage"/><dc:title/></cc:Work></rdf:RDF></metadata><sodipodi:namedview pagecolor="#ffffff" bordercolor="#666666" borderopacity="1" objecttolerance="10" gridtolerance="10" guidetolerance="10" inkscape:pageopacity="0" inkscape:pageshadow="2" inkscape:window-width="701" inkscape:window-height="480" id="back-arrow-blue-namedview4149" showgrid="false" inkscape:zoom="0.4609375" inkscape:cx="256" inkscape:cy="256" inkscape:window-x="929" inkscape:window-y="367" inkscape:window-maximized="0" inkscape:current-layer="Layer_1"/> <path fill="#010101" d="M210.75,320l117.031,117.031l-67.906,67.875L10.969,256L259.875,7.094l67.906,67.875L210.719,192.031  L501,192l0.031,127.969L210.75,320z" id="back-arrow-blue-path4147" style="fill:#00558f;fill-opacity:0.94117647"/> </symbol><symbol viewBox="0 0 512 512" id="shape-back-arrow"><title>back-arrow</title> <path fill="#010101" d="M210.75,320l117.031,117.031l-67.906,67.875L10.969,256L259.875,7.094l67.906,67.875L210.719,192.031
	L501,192l0.031,127.969L210.75,320z"/> </symbol><symbol viewBox="0 0 512 512" id="shape-download-blue"><title>download-blue</title><metadata id="download-blue-metadata13"><rdf:RDF><cc:Work rdf:about=""><dc:format>image/svg+xml</dc:format><dc:type rdf:resource="http://purl.org/dc/dcmitype/StillImage"/><dc:title/></cc:Work></rdf:RDF></metadata><sodipodi:namedview pagecolor="#ffffff" bordercolor="#666666" borderopacity="1" objecttolerance="10" gridtolerance="10" guidetolerance="10" inkscape:pageopacity="0" inkscape:pageshadow="2" inkscape:window-width="701" inkscape:window-height="480" id="download-blue-namedview9" showgrid="false" inkscape:zoom="0.4609375" inkscape:cx="256" inkscape:cy="253.83051" inkscape:window-x="0" inkscape:window-y="0" inkscape:window-maximized="0" inkscape:current-layer="Layer_1"/> <g id="download-blue-g3" style="fill:#00558f;fill-opacity:0.94117647"> <path d="M442.55,203.072c4.172-11.615,6.45-24.132,6.45-37.184c0-60.751-49.248-110-110-110c-34.805,0-65.829,16.169-85.985,41.4   c-12.395-6.021-26.31-9.4-41.015-9.4c-51.915,0-94,42.085-94,94c0,0.28,0.008,0.559,0.011,0.839   C68.92,189.095,31,231.062,31,281.888c0,55.229,44.771,100,100,100h63.646l-60.209-73.732h89.538v-93.102h88.667v93.102   l88.729,0.002l-60.207,73.73H381c55.229,0,100-44.771,100-100C481,249.873,465.954,221.375,442.55,203.072z" id="download-blue-path5" style="fill:#00558f;fill-opacity:0.94117647"/> <polygon points="302.885,317.047 302.885,224.085 232.923,224.085 232.923,317.047 154.35,317.047 211.128,386.578    267.904,456.111 324.68,386.578 381.456,317.049  " id="download-blue-polygon7" style="fill:#00558f;fill-opacity:0.94117647"/> </g> </symbol><symbol viewBox="0 0 512 512" id="shape-download"><title>download</title> <g> <path d="M442.55,203.072c4.172-11.615,6.45-24.132,6.45-37.184c0-60.751-49.248-110-110-110c-34.805,0-65.829,16.169-85.985,41.4
		c-12.395-6.021-26.31-9.4-41.015-9.4c-51.915,0-94,42.085-94,94c0,0.28,0.008,0.559,0.011,0.839
		C68.92,189.095,31,231.062,31,281.888c0,55.229,44.771,100,100,100h63.646l-60.209-73.732h89.538v-93.102h88.667v93.102
		l88.729,0.002l-60.207,73.73H381c55.229,0,100-44.771,100-100C481,249.873,465.954,221.375,442.55,203.072z"/> <polygon points="302.885,317.047 302.885,224.085 232.923,224.085 232.923,317.047 154.35,317.047 211.128,386.578 
		267.904,456.111 324.68,386.578 381.456,317.049 	"/> </g> </symbol><symbol viewBox="0 0 512 512" id="shape-twitter-blue"><title>twitter-blue</title> <metadata id="twitter-blue-metadata12"> <rdf:RDF> <cc:Work rdf:about=""> <dc:format>image/svg+xml</dc:format> <dc:type rdf:resource="http://purl.org/dc/dcmitype/StillImage"/> <dc:title/> </cc:Work> </rdf:RDF> </metadata>  <sodipodi:namedview pagecolor="#ffffff" bordercolor="#666666" borderopacity="1" objecttolerance="10" gridtolerance="10" guidetolerance="10" inkscape:pageopacity="0" inkscape:pageshadow="2" inkscape:window-width="1920" inkscape:window-height="1018" id="twitter-blue-namedview8" showgrid="false" inkscape:zoom="0.4609375" inkscape:cx="256" inkscape:cy="253.83051" inkscape:window-x="-8" inkscape:window-y="-8" inkscape:window-maximized="1" inkscape:current-layer="svg2"/>  <path d="M23.265 327.916c0 0 61.061 92.58 185.385 90.44 80.158-2.396 193.843-37.765 224.235-154.665 0 0 32.645 5.509 55.839-19.917-31.642 4.393-52.664-5.54-52.664-5.54s41.359-1.178 50.545-25.661c-24.505 10.639-54.805 1.587-54.805 1.587s-14.285-87.522-101.263-90.727c0 0 46.5-9.431 39.219-20.163-5.858-7.772-38.164 6.718-38.164 6.718s18.022-7.936 17.644-16.394c-18.238 2.069-35 15.565-35 15.565s5.099-8.151 5.223-11.602c-43.459 24.105-73.022 114.135-73.022 114.135s-10.998-12.216-29.317-25.508c-44.278-26.020-125.942-56.924-125.942-56.924s-5.458 33.69 38.123 58.368c-17.858 1.423-26.798 3.727-26.798 3.727s0 35.779 51.897 47.452c-24.115 0.839-31.98 12.8-31.98 12.8s13.558 31.959 56.279 29.369c-34.765 17.889-12.257 42.404 16.159 39.793-91.351 81.776-171.591 7.147-171.591 7.147z" fill="#000000" id="twitter-blue-path6" style="fill:#00558f;fill-opacity:0.94117647"/> </symbol><symbol viewBox="0 0 512 512" id="shape-twitter"><title>twitter</title>  <path d="M23.265 327.916c0 0 61.061 92.58 185.385 90.44 80.158-2.396 193.843-37.765 224.235-154.665 0 0 32.645 5.509 55.839-19.917-31.642 4.393-52.664-5.54-52.664-5.54s41.359-1.178 50.545-25.661c-24.505 10.639-54.805 1.587-54.805 1.587s-14.285-87.522-101.263-90.727c0 0 46.5-9.431 39.219-20.163-5.858-7.772-38.164 6.718-38.164 6.718s18.022-7.936 17.644-16.394c-18.238 2.069-35 15.565-35 15.565s5.099-8.151 5.223-11.602c-43.459 24.105-73.022 114.135-73.022 114.135s-10.998-12.216-29.317-25.508c-44.278-26.020-125.942-56.924-125.942-56.924s-5.458 33.69 38.123 58.368c-17.858 1.423-26.798 3.727-26.798 3.727s0 35.779 51.897 47.452c-24.115 0.839-31.98 12.8-31.98 12.8s13.558 31.959 56.279 29.369c-34.765 17.889-12.257 42.404 16.159 39.793-91.351 81.776-171.591 7.147-171.591 7.147z" fill="#000000"/> </symbol><symbol viewBox="0 0 512 512" id="shape-webpage-blue"><title>webpage-blue</title><metadata id="webpage-blue-metadata9"><rdf:RDF><cc:Work rdf:about=""><dc:format>image/svg+xml</dc:format><dc:type rdf:resource="http://purl.org/dc/dcmitype/StillImage"/><dc:title/></cc:Work></rdf:RDF></metadata><sodipodi:namedview pagecolor="#ffffff" bordercolor="#666666" borderopacity="1" objecttolerance="10" gridtolerance="10" guidetolerance="10" inkscape:pageopacity="0" inkscape:pageshadow="2" inkscape:window-width="701" inkscape:window-height="480" id="webpage-blue-namedview5" showgrid="false" inkscape:zoom="0.4609375" inkscape:cx="256" inkscape:cy="253.83051" inkscape:window-x="0" inkscape:window-y="0" inkscape:window-maximized="0" inkscape:current-layer="Layer_1"/> <path d="M32,0v512h320l128-128V0H32z M352,466.75V384h82.75L352,466.75z M448,352h-32v-32h-32v32h-64v128H64V32h384V352z M416,128  H96V64h320V128z M288,224H96v-32h192V224z M384,192h32v32h-32V192z M384,256h32v32h-32V256z M320,288H96v-32h224V288z M224,352H96  v-32h128V352z M256,416H96v-32h160V416z" id="webpage-blue-path3" style="fill:#00558f;fill-opacity:0.94117647"/> </symbol><symbol viewBox="0 0 512 512" id="shape-webpage"><title>webpage</title> <path d="M32,0v512h320l128-128V0H32z M352,466.75V384h82.75L352,466.75z M448,352h-32v-32h-32v32h-64v128H64V32h384V352z M416,128
	H96V64h320V128z M288,224H96v-32h192V224z M384,192h32v32h-32V192z M384,256h32v32h-32V256z M320,288H96v-32h224V288z M224,352H96
	v-32h128V352z M256,416H96v-32h160V416z"/> </symbol></svg>